# xmcd
#
# Track frame offsets: 
#        150
#        15480
#        32619
#        45692
#        66451
#        87551
#        99643
#        114973
#        131771
#        146725
#        165582
#        178140
#        189726
#        208738
#
# Disc length: 3107 seconds
#
# Revision: 0
# Processed by: cddbd v1.5.2PL0 Copyright (c) Steve Scherf et al.
# Submitted via: ExactAudioCopy v1.3
#
DISCID=cc0c210e
DTITLE=Magic Sam and Shakey Jake - Magic Touch (Live At Sylvio's 1968)
DYEAR=1983
DGENRE=Chicago Blues, Electric Blues, Harmonica Blues
TTITLE0=Juke
TTITLE1=Reconsider Baby
TTITLE2=Just Like A Fish
TTITLE3=Dirty Work Going On
TTITLE4=Rock Me Baby
TTITLE5=I've Been Down So Long
TTITLE6=I Cant Please You
TTITLE7=I Just Got To Know
TTITLE8=I'm Tore Down
TTITLE9=Baby Scratch My Back
TTITLE10=Sawed Off Shotgun
TTITLE11=Backstroke
TTITLE12=All Your Love
TTITLE13=She's Nineteen Years Old
EXTD=
EXTT0=
EXTT1=
EXTT2=
EXTT3=
EXTT4=
EXTT5=
EXTT6=
EXTT7=
EXTT8=
EXTT9=
EXTT10=
EXTT11=
EXTT12=
EXTT13=
PLAYORDER=
